# xmcd
#
# Track frame offsets:
#	182
#	16205
#	29360
#	44567
#	58052
#	72862
#	84977
#	97937
#	111037
#	123277
#	136572
#	151042
#	163295
#	182987
#	197440
#	215642
#	238167
#	253470
#	268085
#	286412
#
# Disc length: 4060 seconds
#
# Revision: 1
# Processed by: cddbd v1.5.2PL0 Copyright (c) Steve Scherf et al.
# Submitted via: audiograbber 1.83.01
#
DISCID=1e0fda14
DTITLE=Roto Noto - Mamas Pride
DYEAR=1992
DGENRE=Country
TTITLE0=Do What You Gotta Do -Mark Laforme
TTITLE1=Tonight -Manon
TTITLE2=Fly Away -Lindsay Thomas Morgan
TTITLE3=Last Date -Diane Reaside
TTITLE4=Circle Of Love -Lisa Logan
TTITLE5=Giving Up On You -Jack Diamond
TTITLE6=Using Me Again Dan Kennedy
TTITLE7=Frankie And Johnny -Lynne An d Rebels
TTITLE8=Long Time Leaving -Curly Neill And Janey
TTITLE9=Lifetime Of Mondays -Lorraine White
TTITLE10=It´s You I Want -Cali Feversham
TTITLE11=Love At First Sight -Paul Newell
TTITLE12=The Only Thing I´m missing -Tammy Dixon
TTITLE13=The Physical Fitness Song -Terry Dixon
TTITLE14=Goodbye Girl -Mark Severn
TTITLE15=Stevie -Rapid Transit
TTITLE16=Take Me In Your Arms Tonight -Diane Raeside
TTITLE17=Home -Michael Terry
TTITLE18=Holdin´ On For Dear Life -Jack Diamond
TTITLE19=Corners -Erica
EXTD=
EXTT0=
EXTT1=
EXTT2=
EXTT3=
EXTT4=
EXTT5=
EXTT6=
EXTT7=
EXTT8=
EXTT9=
EXTT10=
EXTT11=
EXTT12=
EXTT13=
EXTT14=
EXTT15=
EXTT16=
EXTT17=
EXTT18=
EXTT19=
PLAYORDER=
